<?xml version="1.0" encoding="UTF-8"?>
<svg version="1.1" xmlns="http://www.w3.org/2000/svg" width="48" height="48">
<path d="M0 0 C5.82485779 3.51996782 10.54466582 8.98962934 12.5625 15.5 C13.36764105 23.33608208 13.68710392 31.11922577 8.5625 37.5 C3.75801361 42.54521222 -0.59927055 46.10562995 -7.70703125 46.8359375 C-16.22326573 46.92983204 -22.11345494 46.6177288 -28.40234375 40.62890625 C-34.7841668 33.72505269 -35.91792252 28.29832071 -35.7421875 18.9453125 C-35.04689797 11.08319245 -31.38995981 6.95041296 -25.53515625 1.9453125 C-18.47077988 -2.92213491 -7.84396301 -3.47595223 0 0 Z " fill="#4C9DB7" transform="translate(35.4375,1.5)"/>
<path d="M0 0 C3.89231426 0.10811984 4.97775365 0.97724805 7.75 3.8125 C10.64367816 7.91187739 10.64367816 7.91187739 11 11 C10.34 11 9.68 11 9 11 C9.01324736 14.09988154 9.18254017 17.00091171 10 20 C12.86875539 22.3015039 12.86875539 22.3015039 16 24 C18.60213313 28.13975725 18.76258921 33.24070832 18 38 C15.75938325 40.47240468 14.17070471 40.94309843 11 42 C8.60509014 42.06970052 6.20832309 42.08448003 3.8125 42.0625 C2.54019531 42.05347656 1.26789062 42.04445312 -0.04296875 42.03515625 C-1.50669922 42.01775391 -1.50669922 42.01775391 -3 42 C-2.67 39.69 -2.34 37.38 -2 35 C-2.66 35 -3.32 35 -4 35 C-4.05422947 33.5629191 -4.09289723 32.12524538 -4.125 30.6875 C-4.14820313 29.88699219 -4.17140625 29.08648437 -4.1953125 28.26171875 C-4 26 -4 26 -2 23 C-0.68 23 0.64 23 2 23 C0.84813754 18.48115495 -0.57997419 14.96004224 -3 11 C-3 10.01 -3 9.02 -3 8 C-2.01 8 -1.02 8 0 8 C0 7.01 0 6.02 0 5 C-0.66 5 -1.32 5 -2 5 C-1.125 1.125 -1.125 1.125 0 0 Z " fill="#AB7D6E" transform="translate(20,6)"/>
<path d="M0 0 C3.4375 0 3.4375 0 7 1 C10.11460283 5.01884236 10.52990294 9.0694168 10.35546875 14.01171875 C10 16 10 16 8.25 18 C6.15752148 18.92999045 4.25225662 19.59781132 2 20 C1.67 17.36 1.34 14.72 1 12 C0.34 12 -0.32 12 -1 12 C-1.33 11.34 -1.66 10.68 -2 10 C-2.86625 10.2784375 -2.86625 10.2784375 -3.75 10.5625 C-6.20692525 11.04023546 -7.64397534 10.75729364 -10 10 C-10 6 -10 6 -9 3 C-7.88625 2.87625 -6.7725 2.7525 -5.625 2.625 C-1.96896323 2.3534187 -1.96896323 2.3534187 0 0 Z " fill="#C7B4AF" transform="translate(28,28)"/>
<path d="M0 0 C3.40316225 2.29943395 4.67359467 4.88901047 5.61328125 8.86328125 C7.34972837 18.45759008 7.34972837 18.45759008 7 22 C5.0078125 23.828125 5.0078125 23.828125 3 25 C1 23 1 23 0.8046875 20.9765625 C0.83949219 19.81253906 0.83949219 19.81253906 0.875 18.625 C0.89304687 17.85414062 0.91109375 17.08328125 0.9296875 16.2890625 C0.95289063 15.53367187 0.97609375 14.77828125 1 14 C1.01647499 9.70441379 1.01647499 9.70441379 -1.5 6.75 C-2.325 5.8425 -3.15 4.935 -4 4 C-5.65 4.33 -7.3 4.66 -9 5 C-9.33 5.99 -9.66 6.98 -10 8 C-9.34 8 -8.68 8 -8 8 C-8 8.99 -8 9.98 -8 11 C-8.99 11 -9.98 11 -11 11 C-10.72285156 11.53109375 -10.44570313 12.0621875 -10.16015625 12.609375 C-9.79792969 13.31578125 -9.43570312 14.0221875 -9.0625 14.75 C-8.52302734 15.79414062 -8.52302734 15.79414062 -7.97265625 16.859375 C-7.04441818 18.90224433 -6.46833422 20.81115376 -6 23 C-7.8125 23.6875 -7.8125 23.6875 -10 24 C-12.01387852 22.47743001 -12.89489133 21.56283998 -13.36328125 19.0546875 C-13.04755073 5.502562 -13.04755073 5.502562 -9.3125 0.9375 C-5.98795679 -0.41028779 -3.55041082 -0.44380135 0 0 Z " fill="#414041" transform="translate(28,3)"/>
<path d="M0 0 C2.14255793 -0.38932856 2.14255793 -0.38932856 4 -1 C4 -0.01 4 0.98 4 2 C4.66 2 5.32 2 6 2 C6.33 4.64 6.66 7.28 7 10 C2.71 10 -1.58 10 -6 10 C-5.67 7.69 -5.34 5.38 -5 3 C-5.66 3 -6.32 3 -7 3 C-7 2.34 -7 1.68 -7 1 C-3.375 -1.125 -3.375 -1.125 0 0 Z " fill="#8EA2B0" transform="translate(23,38)"/>
<path d="M0 0 C2.125 0.375 2.125 0.375 4 1 C4 1.33 4 1.66 4 2 C4.99 2.33 5.98 2.66 7 3 C7 4.32 7 5.64 7 7 C5.68 7 4.36 7 3 7 C2.67 7.66 2.34 8.32 2 9 C0.1875 9.5625 0.1875 9.5625 -2 10 C-2.66 10.20625 -3.32 10.4125 -4 10.625 C-6.30538062 11.05725887 -7.78734805 10.71120955 -10 10 C-10 6 -10 6 -9 3 C-7.88625 2.87625 -6.7725 2.7525 -5.625 2.625 C-1.96896323 2.3534187 -1.96896323 2.3534187 0 0 Z " fill="#DCCECD" transform="translate(28,28)"/>
<path d="M0 0 C0.99 0 1.98 0 3 0 C2.96644647 7.24756257 1.04190587 11.76996331 -4 17 C-4.99 17.66 -5.98 18.32 -7 19 C-7.66 14.38 -8.32 9.76 -9 5 C-7.68 4.67 -6.36 4.34 -5 4 C-5 4.66 -5 5.32 -5 6 C-2.44496043 4.71711243 -2.44496043 4.71711243 0 3 C0 2.01 0 1.02 0 0 Z " fill="#097B96" transform="translate(45,25)"/>
<path d="M0 0 C0 1.65 0 3.3 0 5 C0.99 5.33 1.98 5.66 3 6 C-2.38686131 10.63868613 -2.38686131 10.63868613 -6 11 C-6.99 10.67 -7.98 10.34 -9 10 C-9.33 12.64 -9.66 15.28 -10 18 C-10.66 17.67 -11.32 17.34 -12 17 C-12.25 11.375 -12.25 11.375 -10 8 C-8.68 8 -7.36 8 -6 8 C-6 6.02 -6 4.04 -6 2 C-1.125 0 -1.125 0 0 0 Z " fill="#CDB6AE" transform="translate(28,21)"/>
<path d="M0 0 C3.89231426 0.10811984 4.97775365 0.97724805 7.75 3.8125 C10.64367816 7.91187739 10.64367816 7.91187739 11 11 C9.02 11.99 9.02 11.99 7 13 C7 12.01 7 11.02 7 10 C5.68 9.67 4.36 9.34 3 9 C3.99 8.67 4.98 8.34 6 8 C6 7.34 6 6.68 6 6 C5.01 5.67 4.02 5.34 3 5 C2.34 6.65 1.68 8.3 1 10 C-0.32 10 -1.64 10 -3 10 C-3 9.34 -3 8.68 -3 8 C-2.01 8 -1.02 8 0 8 C0 7.01 0 6.02 0 5 C-0.66 5 -1.32 5 -2 5 C-1.125 1.125 -1.125 1.125 0 0 Z " fill="#DEC9C8" transform="translate(20,6)"/>
<path d="M0 0 C0.33 0 0.66 0 1 0 C2.125 7.75 2.125 7.75 1 10 C1.66 10 2.32 10 3 10 C2.67 11.98 2.34 13.96 2 16 C0.35 15.67 -1.3 15.34 -3 15 C-3.33 14.01 -3.66 13.02 -4 12 C-3 10 -2 8 -1 6 C-0.83201738 3.29113059 -0.83201738 3.29113059 -1 1 C-0.67 0.67 -0.34 0.34 0 0 Z " fill="#438297" transform="translate(15,31)"/>
<path d="M0 0 C0.99 0.99 1.98 1.98 3 3 C2.67 3.99 2.34 4.98 2 6 C1.34 6 0.68 6 0 6 C0.33 6.66 0.66 7.32 1 8 C1.66 7.67 2.32 7.34 3 7 C3 8.98 3 10.96 3 13 C1.68 13.33 0.36 13.66 -1 14 C-1.33 11.36 -1.66 8.72 -2 6 C-2.66 6 -3.32 6 -4 6 C-4 4.35 -4 2.7 -4 1 C-3.67 1.66 -3.34 2.32 -3 3 C-2.34 3 -1.68 3 -1 3 C-0.67 2.01 -0.34 1.02 0 0 Z " fill="#CEB8B0" transform="translate(31,34)"/>
<path d="M0 0 C0.99 0.33 1.98 0.66 3 1 C3.58052245 4.00988272 4.05989746 6.92889402 4 10 C2.0625 12.0625 2.0625 12.0625 0 13 C-2 11 -2 11 -2.1953125 8.8359375 C-2.17210938 8.02382813 -2.14890625 7.21171875 -2.125 6.375 C-2.10695313 5.55773437 -2.08890625 4.74046875 -2.0703125 3.8984375 C-2.04710938 3.27195312 -2.02390625 2.64546875 -2 2 C-1.34 2 -0.68 2 0 2 C0 1.34 0 0.68 0 0 Z " fill="#322F2F" transform="translate(31,15)"/>
<path d="M0 0 C0.99 0 1.98 0 3 0 C2.67 2.97 2.34 5.94 2 9 C1.2575 8.814375 0.515 8.62875 -0.25 8.4375 C-2.94990963 8.00796892 -4.44631077 8.14877026 -7 9 C-7 8.34 -7 7.68 -7 7 C-7.66 7 -8.32 7 -9 7 C-9 6.34 -9 5.68 -9 5 C-7.68 4.67 -6.36 4.34 -5 4 C-5 4.66 -5 5.32 -5 6 C-2.44496043 4.71711243 -2.44496043 4.71711243 0 3 C0 2.01 0 1.02 0 0 Z " fill="#1688A3" transform="translate(45,25)"/>
<path d="M0 0 C2.5625 2.25 2.5625 2.25 5 5 C4.8125 7.3125 4.8125 7.3125 4 9 C2.35 8.67 0.7 8.34 -1 8 C-1.625 5.6875 -1.625 5.6875 -2 3 C-1.34 2.01 -0.68 1.02 0 0 Z " fill="#262323" transform="translate(17,18)"/>
<path d="M0 0 C2.13586678 3.20380017 2.23132175 4.01939967 2.125 7.6875 C2.10695313 8.49574219 2.08890625 9.30398437 2.0703125 10.13671875 C2.03550781 11.05904297 2.03550781 11.05904297 2 12 C0.02 12.99 0.02 12.99 -2 14 C-1.33333333 9.33333333 -0.66666667 4.66666667 0 0 Z " fill="#B99C93" transform="translate(36,32)"/>
<path d="M0 0 C2.79872437 2.52788007 4.45773019 4.20411134 5 8 C3.02 8.99 3.02 8.99 1 10 C1 9.01 1 8.02 1 7 C-0.32 6.67 -1.64 6.34 -3 6 C-2.01 5.67 -1.02 5.34 0 5 C0 4.34 0 3.68 0 3 C-0.66 2.67 -1.32 2.34 -2 2 C-1.34 2 -0.68 2 0 2 C0 1.34 0 0.68 0 0 Z " fill="#C6ACA8" transform="translate(26,9)"/>
<path d="M0 0 C1.98 0.495 1.98 0.495 4 1 C4.33 3.64 4.66 6.28 5 9 C3.35 9 1.7 9 0 9 C-0.33 8.01 -0.66 7.02 -1 6 C-0.34 5.34 0.32 4.68 1 4 C1.66 4.66 2.32 5.32 3 6 C3 5.01 3 4.02 3 3 C2.34 3 1.68 3 1 3 C0.67 2.01 0.34 1.02 0 0 Z " fill="#656973" transform="translate(25,39)"/>
<path d="M0 0 C0.66 0 1.32 0 2 0 C4 2 4 2 4.1953125 3.9453125 C4.13020833 5.96354167 4.06510417 7.98177083 4 10 C3.34 8.68 2.68 7.36 2 6 C1.67 6.33 1.34 6.66 1 7 C-0.66617115 7.04063832 -2.33388095 7.042721 -4 7 C-2.68 6.67 -1.36 6.34 0 6 C-0.185625 5.38125 -0.37125 4.7625 -0.5625 4.125 C-1 2 -1 2 0 0 Z " fill="#A17967" transform="translate(25,16)"/>
<path d="M0 0 C0.99 0.33 1.98 0.66 3 1 C3 2.32 3 3.64 3 5 C1.68 5 0.36 5 -1 5 C-1.33 5.66 -1.66 6.32 -2 7 C-2.66 7 -3.32 7 -4 7 C-3.67 5.35 -3.34 3.7 -3 2 C-2.01 2 -1.02 2 0 2 C0 1.34 0 0.68 0 0 Z " fill="#D1C5C3" transform="translate(32,30)"/>
<path d="M0 0 C0 1.66666667 0 3.33333333 0 5 C0.66 5 1.32 5 2 5 C2.33 5.99 2.66 6.98 3 8 C2.01 8 1.02 8 0 8 C-0.33 7.34 -0.66 6.68 -1 6 C-1.99 6.495 -1.99 6.495 -3 7 C-3.66 6.34 -4.32 5.68 -5 5 C-4.34 5 -3.68 5 -3 5 C-3 3.68 -3 2.36 -3 1 C-2.01 0.67 -1.02 0.34 0 0 Z " fill="#9AA7B4" transform="translate(26,37)"/>
<path d="M0 0 C0 1.65 0 3.3 0 5 C0.99 5.33 1.98 5.66 3 6 C2.01 6.33 1.02 6.66 0 7 C-0.66 5.68 -1.32 4.36 -2 3 C-2.99 3 -3.98 3 -5 3 C-4.67 4.32 -4.34 5.64 -4 7 C-4.66 7 -5.32 7 -6 7 C-6 5.35 -6 3.7 -6 2 C-1.125 0 -1.125 0 0 0 Z " fill="#C19A87" transform="translate(28,21)"/>
<path d="M0 0 C0.99 0.33 1.98 0.66 3 1 C2.67 2.98 2.34 4.96 2 7 C1.01 7 0.02 7 -1 7 C-0.67 4.69 -0.34 2.38 0 0 Z " fill="#5B6C76" transform="translate(15,40)"/>
<path d="M0 0 C1.37432457 3.81756824 0.67975039 7.07255329 0 11 C-0.66 11 -1.32 11 -2 11 C-2 8.03 -2 5.06 -2 2 C-1.34 2 -0.68 2 0 2 C0 1.34 0 0.68 0 0 Z " fill="#201C1A" transform="translate(31,15)"/>
<path d="M0 0 C1.98 0.495 1.98 0.495 4 1 C4.33 2.32 4.66 3.64 5 5 C3.35 5 1.7 5 0 5 C-0.33 4.01 -0.66 3.02 -1 2 C-0.67 1.34 -0.34 0.68 0 0 Z " fill="#CCABA3" transform="translate(20,17)"/>
<path d="M0 0 C0.99 0 1.98 0 3 0 C3 1.98 3 3.96 3 6 C1.35 6 -0.3 6 -2 6 C-1.67 5.195625 -1.34 4.39125 -1 3.5625 C0.06059041 1.30318875 0.06059041 1.30318875 0 0 Z " fill="#2591AC" transform="translate(45,25)"/>
<path d="M0 0 C0.33 0 0.66 0 1 0 C1 1.98 1 3.96 1 6 C-0.32 6.33 -1.64 6.66 -3 7 C-3 5.68 -3 4.36 -3 3 C-2.34 3 -1.68 3 -1 3 C-0.67 2.01 -0.34 1.02 0 0 Z " fill="#CFAB9D" transform="translate(33,41)"/>
<path d="M0 0 C0.99 0.33 1.98 0.66 3 1 C3 1.99 3 2.98 3 4 C2.01 4 1.02 4 0 4 C0 4.66 0 5.32 0 6 C-0.66 6 -1.32 6 -2 6 C-1.125 1.125 -1.125 1.125 0 0 Z " fill="#A68B86" transform="translate(23,10)"/>
<path d="M0 0 C1.9375 0.3125 1.9375 0.3125 4 1 C4.33 1.99 4.66 2.98 5 4 C2.69 4 0.38 4 -2 4 C-1.34 2.68 -0.68 1.36 0 0 Z " fill="#74808D" transform="translate(19,44)"/>
</svg>
