<?xml version="1.0" encoding="UTF-8"?>
<svg version="1.1" xmlns="http://www.w3.org/2000/svg" width="86" height="26">
<path d="M0 0 C1.65 0 3.3 0 5 0 C5 1.32 5 2.64 5 4 C7.97 4.495 7.97 4.495 11 5 C11.33 3.35 11.66 1.7 12 0 C13.65 0 15.3 0 17 0 C16.67 1.65 16.34 3.3 16 5 C16.77085938 4.96519531 17.54171875 4.93039063 18.3359375 4.89453125 C19.33882812 4.86746094 20.34171875 4.84039063 21.375 4.8125 C22.87160156 4.76029297 22.87160156 4.76029297 24.3984375 4.70703125 C25.25695312 4.80371094 26.11546875 4.90039062 27 5 C29 8 29 8 29 12 C27.35 12 25.7 12 24 12 C24.66 12.66 25.32 13.32 26 14 C26.99 13.67 27.98 13.34 29 13 C28.67 14.32 28.34 15.64 28 17 C26.700625 16.979375 25.40125 16.95875 24.0625 16.9375 C20.9471272 16.93266996 17.96073144 17.08269156 14.875 17.5 C10.62934574 18.01941515 6.3981822 18.14665716 2.125 18.1875 C0.21074219 18.20876953 0.21074219 18.20876953 -1.7421875 18.23046875 C-5 18 -5 18 -8 16 C-8 15.01 -8 14.02 -8 13 C-8.99 13.495 -8.99 13.495 -10 14 C-10.33 14.99 -10.66 15.98 -11 17 C-11.99 17 -12.98 17 -14 17 C-14.33 15.68 -14.66 14.36 -15 13 C-14.34 13 -13.68 13 -13 13 C-12.90912109 12.07767578 -12.90912109 12.07767578 -12.81640625 11.13671875 C-12.69072266 9.92435547 -12.69072266 9.92435547 -12.5625 8.6875 C-12.48128906 7.88699219 -12.40007813 7.08648437 -12.31640625 6.26171875 C-12 4 -12 4 -11 1 C-9.68 1 -8.36 1 -7 1 C-6.34 3.31 -5.68 5.62 -5 8 C-4.54625 7.505 -4.0925 7.01 -3.625 6.5 C-2 5 -2 5 0 5 C0 3.35 0 1.7 0 0 Z M4 6 C5 8 5 8 5 8 Z M-10 8 C-9 10 -9 10 -9 10 Z M7 8 C7 9.98 7 11.96 7 14 C7.66 14 8.32 14 9 14 C9 12.02 9 10.04 9 8 C8.34 8 7.68 8 7 8 Z M24 8 C24 8.66 24 9.32 24 10 C24.66 10 25.32 10 26 10 C26 9.34 26 8.68 26 8 C25.34 8 24.68 8 24 8 Z M-2 9 C-2 10.32 -2 11.64 -2 13 C-1.34 13 -0.68 13 0 13 C-0.33 11.68 -0.66 10.36 -1 9 C-1.33 9 -1.66 9 -2 9 Z M17 9 C17 10.32 17 11.64 17 13 C17.33 11.68 17.66 10.36 18 9 C17.67 9 17.34 9 17 9 Z M3 10 C4 13 4 13 4 13 Z M12 10 C13 13 13 13 13 13 Z M16 13 C17 15 17 15 17 15 Z " fill="#000000" transform="translate(47,4)"/>
<path d="M0 0 C0.33 1.65 0.66 3.3 1 5 C1.66 5 2.32 5 3 5 C3 3.35 3 1.7 3 0 C5.31 0 7.62 0 10 0 C10.495 7.92 10.495 7.92 11 16 C9.68 15.67 8.36 15.34 7 15 C3.80376352 15.87050779 3.80376352 15.87050779 1 17 C1 16.01 1 15.02 1 14 C0.01 13.67 -0.98 13.34 -2 13 C-2.33 12.01 -2.66 11.02 -3 10 C-3.33 10.66 -3.66 11.32 -4 12 C-5.32 13.32 -6.64 14.64 -8 16 C-8 10.72 -8 5.44 -8 0 C-5.13822943 -1.43088528 -3.06624227 -0.59991697 0 0 Z M-3 6 C-3 6.66 -3 7.32 -3 8 C-2.34 7.67 -1.68 7.34 -1 7 C-1.66 6.67 -2.32 6.34 -3 6 Z M4 7 C4 7.99 4 8.98 4 10 C4.66 9.01 5.32 8.02 6 7 C5.34 7 4.68 7 4 7 Z M4 10 C4.33 10.66 4.66 11.32 5 12 C5.33 11.34 5.66 10.68 6 10 C5.34 10 4.68 10 4 10 Z M7 11 C6.67 11.66 6.34 12.32 6 13 C6.66 13 7.32 13 8 13 C7.67 12.34 7.34 11.68 7 11 Z " fill="#000000" transform="translate(18,5)"/>
<path d="M0 0 C0.33 0 0.66 0 1 0 C1 8.58 1 17.16 1 26 C-17.15 26 -35.3 26 -54 26 C-54 25.67 -54 25.34 -54 25 C-36.18 25 -18.36 25 0 25 C0 16.75 0 8.5 0 0 Z " fill="#000000" transform="translate(85,0)"/>
<path d="M0 0 C9.57 0 19.14 0 29 0 C29 0.33 29 0.66 29 1 C19.43 1 9.86 1 0 1 C0 0.67 0 0.34 0 0 Z " fill="#000000" transform="translate(1,25)"/>
<path d="M0 0 C0.66 0.33 1.32 0.66 2 1 C1.01 1.66 0.02 2.32 -1 3 C-0.67 2.01 -0.34 1.02 0 0 Z " fill="#000000" transform="translate(43,8)"/>
<path d="" fill="#000000" transform="translate(0,0)"/>
<path d="" fill="#000000" transform="translate(0,0)"/>
<path d="" fill="#000000" transform="translate(0,0)"/>
<path d="" fill="#000000" transform="translate(0,0)"/>
<path d="" fill="#000000" transform="translate(0,0)"/>
<path d="" fill="#000000" transform="translate(0,0)"/>
<path d="" fill="#000000" transform="translate(0,0)"/>
<path d="" fill="#000000" transform="translate(0,0)"/>
<path d="" fill="#000000" transform="translate(0,0)"/>
<path d="" fill="#000000" transform="translate(0,0)"/>
<path d="" fill="#000000" transform="translate(0,0)"/>
<path d="" fill="#000000" transform="translate(0,0)"/>
<path d="" fill="#000000" transform="translate(0,0)"/>
<path d="" fill="#000000" transform="translate(0,0)"/>
<path d="" fill="#000000" transform="translate(0,0)"/>
<path d="" fill="#000000" transform="translate(0,0)"/>
<path d="" fill="#000000" transform="translate(0,0)"/>
<path d="" fill="#000000" transform="translate(0,0)"/>
<path d="" fill="#000000" transform="translate(0,0)"/>
<path d="" fill="#000000" transform="translate(0,0)"/>
<path d="" fill="#000000" transform="translate(0,0)"/>
<path d="" fill="#000000" transform="translate(0,0)"/>
<path d="" fill="#000000" transform="translate(0,0)"/>
<path d="" fill="#000000" transform="translate(0,0)"/>
<path d="" fill="#000000" transform="translate(0,0)"/>
<path d="" fill="#000000" transform="translate(0,0)"/>
</svg>
