<?xml version="1.0" standalone="no"?>
<!DOCTYPE svg PUBLIC "-//W3C//DTD SVG 20010904//EN"
 "http://www.w3.org/TR/2001/REC-SVG-20010904/DTD/svg10.dtd">
<svg version="1.0" xmlns="http://www.w3.org/2000/svg"
 width="100.000000pt" height="32.000000pt" viewBox="0 0 100.000000 32.000000"
 preserveAspectRatio="xMidYMid meet">

<g transform="translate(0.000000,32.000000) scale(0.100000,-0.100000)"
fill="#000000" stroke="none">
<path d="M30 255 c0 -25 1 -25 80 -25 l80 0 0 -45 0 -45 -80 0 -80 0 0 -60 c0
-53 2 -60 20 -60 17 0 20 7 20 40 l0 40 70 0 c63 0 71 2 86 25 22 34 15 122
-12 142 -11 8 -47 13 -101 13 -82 0 -83 0 -83 -25z"/>
<path d="M250 255 c0 -25 1 -25 79 -25 l79 0 4 -41 c2 -22 2 -42 -1 -45 -2 -2
-40 -4 -83 -4 l-78 0 0 -61 c0 -57 1 -60 23 -57 18 2 23 10 25 40 3 34 6 38
31 38 21 0 32 -8 50 -40 14 -25 29 -40 42 -40 24 0 24 1 -2 44 -16 28 -18 36
-7 36 29 0 48 35 48 88 0 79 -18 92 -125 92 -84 0 -85 0 -85 -25z"/>
<path d="M480 275 c-1 -3 -1 -60 -1 -127 0 -117 1 -123 20 -126 20 -3 21 1 21
127 0 124 -1 131 -20 131 -11 0 -20 -2 -20 -5z"/>
<path d="M648 267 c-25 -27 -111 -215 -105 -231 5 -12 20 -16 62 -16 52 0 55
1 55 25 0 21 -5 25 -30 25 -16 0 -30 2 -30 4 0 2 16 38 36 80 51 107 64 102
64 -29 0 -98 1 -105 20 -105 19 0 20 7 20 113 0 98 -3 116 -18 130 -22 20 -56
22 -74 4z"/>
<path d="M760 150 c0 -122 1 -130 20 -130 17 0 20 8 22 84 l3 85 64 -85 c35
-46 70 -84 77 -84 11 0 14 27 14 130 0 122 -1 130 -20 130 -17 0 -19 -8 -22
-82 l-3 -83 -64 83 c-35 45 -70 82 -77 82 -11 0 -14 -26 -14 -130z"/>
</g>
</svg>
