<?xml version="1.0" standalone="no"?>
<!DOCTYPE svg PUBLIC "-//W3C//DTD SVG 20010904//EN"
 "http://www.w3.org/TR/2001/REC-SVG-20010904/DTD/svg10.dtd">
<svg version="1.0" xmlns="http://www.w3.org/2000/svg"
 width="51.000000pt" height="51.000000pt" viewBox="0 0 51.000000 51.000000"
 preserveAspectRatio="xMidYMid meet">

<g transform="translate(0.000000,51.000000) scale(0.100000,-0.100000)"
fill="#000000" stroke="none">
<path d="M241 479 c-37 -15 -78 -47 -102 -81 l-23 -31 40 26 c21 15 46 27 55
27 8 0 33 16 55 35 31 28 35 35 19 34 -11 0 -31 -5 -44 -10z"/>
<path d="M290 461 c-26 -22 -31 -31 -20 -34 8 -3 22 -7 31 -10 8 -3 36 1 62 7
45 11 47 13 30 28 -17 14 -57 38 -65 38 -2 0 -19 -13 -38 -29z"/>
<path d="M357 412 c-17 -7 -16 -9 5 -29 21 -20 107 -58 114 -50 2 1 -7 20 -19
42 -18 31 -29 40 -52 42 -17 1 -38 -1 -48 -5z"/>
<path d="M412 332 c2 -4 12 -25 21 -47 10 -22 23 -51 30 -64 l11 -23 9 32 c12
46 -3 80 -42 96 -18 7 -31 10 -29 6z"/>
<path d="M407 250 c-4 -30 -7 -59 -7 -65 -1 -5 2 -30 7 -55 l10 -45 11 40 c15
52 14 112 -2 150 l-13 30 -6 -55z"/>
<path d="M451 170 c0 -33 1 -34 10 -11 6 16 6 28 -1 35 -7 7 -10 -1 -9 -24z"/>
<path d="M364 148 c-12 -12 -31 -44 -42 -70 l-21 -48 37 16 c58 24 67 36 56
84 l-9 42 -21 -24z"/>
<path d="M50 135 c7 -8 17 -15 22 -15 6 0 5 7 -2 15 -7 8 -17 15 -22 15 -6 0
-5 -7 2 -15z"/>
<path d="M108 81 c37 -36 56 -38 95 -12 l28 18 -48 6 c-26 4 -61 9 -78 12
l-30 6 33 -30z"/>
<path d="M279 100 c-31 -9 -89 -50 -89 -62 0 -4 22 -8 48 -8 45 0 49 2 65 35
24 50 24 50 -24 35z"/>
</g>
</svg>
